<svg width="1096" height="287" viewBox="0 0 1096 287" fill="none" xmlns="http://www.w3.org/2000/svg">
<path d="M296.023 41.3193C305.086 52.1649 308.891 64.4582 308.83 78.1325C308.737 98.9494 309.411 119.793 308.579 140.578C306.888 182.831 290.774 218.706 259.089 247.223C235.991 268.011 208.93 280.778 178.347 285.243C92.6998 297.75 19.3069 241.901 3.29064 167.74C1.14275 157.795 0.0567909 147.703 0.033466 137.526C-0.0132143 117.185 -0.0116707 96.844 0.0419401 76.5034C0.117507 47.8402 20.8495 24.942 49.4357 21.6588C53.2439 21.2214 57.0241 21.0149 60.835 21.0146C123.96 21.0096 187.084 20.9777 250.209 21.0278C268.286 21.0421 283.74 27.2556 296.023 41.3193ZM243.06 216.558C264.776 193.226 276.254 165.902 275.813 133.761C275.562 115.492 275.78 97.2168 275.767 78.9445C275.756 62.7481 266.912 53.943 250.65 53.9413C186.581 53.9344 122.512 53.9343 58.4422 53.9372C41.402 53.9379 33.1278 62.2549 33.093 79.4819C33.0574 97.1185 33.1398 114.756 33.0554 132.392C33.0203 139.714 33.6907 146.95 34.8329 154.168C42.4611 202.368 84.7551 248.029 143.049 253.377C181.667 256.921 214.987 244.42 243.06 216.558Z" fill="white"/>
<path d="M777.68 85.9999C777.68 69.1751 777.527 52.848 777.766 36.5268C777.846 31.0781 776.044 27.2264 771.305 24.6181C768.647 23.1547 765.949 21.5526 766.405 17.8416C766.869 14.0628 770.145 13.4882 772.909 12.5221C783.588 8.7894 794.277 5.07898 805.01 1.50351C811.3 -0.591826 813.358 0.889956 813.37 7.3663C813.405 26.5227 813.368 45.6793 813.362 64.8359C813.361 67.4911 813.297 70.1544 814.175 72.9802C825.19 61.4323 838.775 57.2 854.338 57.5912C872.316 58.0434 885.167 70.5316 885.317 88.6129C885.463 106.103 885.422 123.594 885.38 141.085C885.362 148.302 886.109 154.849 894.823 156.891C897.51 157.52 897.458 160.003 897.282 162.235C897.07 164.924 895.234 165.994 892.875 166.087C888.717 166.251 884.549 166.213 880.385 166.216C869.058 166.225 857.731 166.22 846.403 166.2C843.515 166.195 840.506 166.242 839.796 162.454C839.086 158.671 841.18 156.978 844.564 156.203C849.814 155 851.721 151.444 851.693 146.281C851.606 129.791 851.723 113.298 851.622 96.8077C851.567 87.6956 847.113 81.5652 839.079 79.0025C830.833 76.3719 820.714 79.1681 815.921 85.4525C813.802 88.231 813.312 91.4528 813.323 94.884C813.381 111.875 813.467 128.867 813.282 145.857C813.223 151.312 815.129 154.769 820.532 156.195C822.405 156.689 824.444 157.185 825.164 159.504C826.299 163.156 824.655 166.047 820.744 166.084C804.088 166.238 787.43 166.182 770.773 166.143C767.924 166.136 766.022 164.795 765.783 161.7C765.547 158.654 767.074 157.346 769.935 156.516C775.978 154.766 777.642 152.339 777.655 145.969C777.696 126.146 777.676 106.323 777.68 85.9999Z" fill="white"/>
<path d="M507.753 128.384C510.409 134.725 512.832 140.748 515.43 146.696C517.522 151.487 520.871 155.156 526.088 156.489C529.236 157.293 530.699 158.935 530.244 162.153C529.754 165.619 527.179 166.187 524.347 166.194C511.02 166.228 497.693 166.221 484.367 166.222C477.537 166.223 470.706 166.242 463.877 166.193C460.943 166.172 458.115 165.963 457.681 162.021C457.284 158.419 459.197 157.094 462.337 156.182C472.479 153.234 474.193 149.526 470.273 139.594C468.502 135.106 466.545 130.689 464.846 126.175C463.737 123.227 461.829 122.281 458.729 122.313C445.071 122.453 431.409 122.466 417.751 122.321C414.426 122.285 412.541 123.284 411.505 126.564C409.954 131.478 407.898 136.23 406.234 141.112C403.498 149.138 406.094 153.808 414.295 155.887C417.459 156.689 420.679 157.418 420.067 161.847C419.464 166.218 416.121 166.209 412.891 166.215C399.898 166.238 386.904 166.208 373.91 166.212C370.76 166.213 367.724 165.985 367.025 162.056C366.316 158.069 369.007 157.022 372.124 156.067C378.684 154.058 382.434 149.014 385.258 143.148C391.548 130.081 396.243 116.36 401.568 102.901C409.16 83.7116 416.267 64.3286 424.015 45.2043C426.304 39.5537 427.035 34.6259 423.866 29.1831C422.583 26.9791 421.285 24.5267 421.208 21.6936C422.707 20.1167 424.641 20.7208 426.357 20.7112C437.018 20.6514 447.69 20.9598 458.336 20.5661C463.158 20.3878 465.41 22.1724 467.106 26.4672C479.695 58.3573 492.472 90.1734 505.19 122.013C505.991 124.02 506.794 126.027 507.753 128.384ZM439.456 62.4644C438.899 61.6879 438.815 60.5106 436.82 60.1063C430.936 75.5156 425.009 91.0367 419.206 106.234C421.168 108.079 422.742 107.643 424.182 107.649C433.334 107.687 442.487 107.687 451.639 107.65C457.086 107.629 457.595 106.927 455.548 101.883C450.296 88.9415 444.965 76.0332 439.456 62.4644Z" fill="white"/>
<path d="M621.927 140.936C621.939 127.617 621.965 114.789 621.958 101.96C621.956 99.797 621.929 97.6218 621.709 95.473C620.857 87.1411 616 80.9058 608.789 78.7436C600.905 76.3795 590.689 79.2236 585.914 85.1068C584.052 87.401 583.22 90.0387 583.224 92.9732C583.245 110.967 583.351 128.96 583.22 146.953C583.181 152.318 586.194 154.831 590.655 156.208C593.533 157.097 595.539 158.372 595.09 161.746C594.612 165.325 592.189 166.221 589.001 166.215C573.34 166.187 557.679 166.205 542.018 166.202C539.343 166.201 536.899 165.731 536.427 162.502C535.951 159.235 537.1 157.198 540.638 156.39C546.499 155.052 548.523 150.46 548.571 145.112C548.732 127.453 548.661 109.792 548.62 92.1322C548.609 87.0964 545.779 83.7619 541.594 81.4188C539.108 80.0273 537.4 78.3463 537.646 75.1319C537.893 71.9123 540.273 71.0796 542.587 70.2335C553.215 66.3472 563.843 62.4576 574.54 58.7666C581.135 56.4909 583.174 58.034 583.261 64.8463C583.288 66.9964 583.265 69.147 583.265 71.3612C585.821 71.6895 586.662 69.7048 587.965 68.6419C600.828 58.1449 615.559 54.8462 631.523 58.3098C646.691 61.6003 656.095 74.4001 656.27 91.0249C656.455 108.683 656.456 126.346 656.277 144.004C656.213 150.271 658.097 154.752 664.548 156.414C667.484 157.171 668.596 159.042 668.245 161.976C667.867 165.124 665.77 166.153 663.003 166.159C647.009 166.195 631.015 166.185 615.021 166.171C612.345 166.168 610.574 164.892 610.067 162.19C609.623 159.828 610.11 157.44 612.637 156.942C621.632 155.17 622.553 148.818 621.927 140.936Z" fill="white"/>
<path d="M1030.89 78.0391C1026.75 78.0942 1023.14 78.5541 1019.8 80.3102C1014.38 83.1614 1011.2 87.181 1011.28 93.7534C1011.48 110.91 1011.46 128.072 1011.29 145.23C1011.23 150.84 1013.32 154.491 1018.73 156.136C1021.74 157.053 1023.87 158.675 1023.13 162.246C1022.44 165.542 1019.91 166.185 1017.05 166.186C1001.56 166.196 986.063 166.212 970.57 166.178C967.77 166.172 965.128 165.695 964.724 162.138C964.361 158.945 965.837 157.439 968.931 156.467C974.911 154.589 976.633 151.819 976.646 145.246C976.68 127.754 976.614 110.261 976.7 92.769C976.723 88.0341 975.277 84.3315 970.926 82.0118C969.765 81.3926 968.683 80.547 967.725 79.6367C964.698 76.7604 964.873 73.2543 968.557 71.5115C980.313 65.9499 992.642 61.8298 1005.07 58.0751C1008.7 56.9767 1011.22 58.924 1011.3 63.0537C1011.35 66.0349 1011.31 69.0179 1011.31 72.0391C1013.1 72.5308 1013.57 70.9609 1014.46 70.163C1028.26 57.8796 1044.3 54.3971 1061.8 59.3105C1074.49 62.8731 1082.14 73.7681 1082.28 87.0009C1082.48 105.491 1082.48 123.985 1082.34 142.476C1082.29 149.467 1083.79 154.995 1091.61 156.823C1094.15 157.418 1095.54 159.342 1095.04 162.103C1094.54 164.788 1092.69 166.111 1090.06 166.119C1074.07 166.169 1058.08 166.188 1042.09 166.137C1039.3 166.129 1037.25 164.839 1036.98 161.757C1036.74 159.05 1038 157.572 1040.62 156.612C1047.28 154.17 1048.66 152.079 1048.68 145.158C1048.71 128.999 1048.75 112.839 1048.66 96.6796C1048.6 85.6587 1042.34 79.0389 1030.89 78.0391Z" fill="white"/>
<path d="M682.258 71.3185C689.394 62.6188 698.953 59.0172 709.188 57.9856C722.817 56.6117 736.437 57.3776 749.584 62.1222C753.731 63.6187 755.783 65.7876 755.445 70.5056C755.029 76.3059 755.327 82.158 755.334 87.9878C755.337 90.2301 755.324 92.513 752.463 93.0233C749.69 93.5179 747.002 93.2724 745.554 90.4C744.21 87.7313 743.263 84.8607 741.9 82.2025C736.17 71.0268 725.778 65.8205 714.775 68.5006C709.154 69.8699 704.852 73.9494 704.472 78.7801C704.047 84.1808 707.45 87.2661 711.713 89.7465C716.225 92.3721 721.273 93.5787 726.078 95.4289C731.51 97.5203 737.061 99.385 742.283 101.919C756.297 108.719 762.53 120.229 761.27 135.619C760.147 149.346 753.119 159.08 740.069 163.792C719.941 171.058 699.921 169.969 680.157 162.096C677.036 160.853 675.515 158.705 675.603 155.179C675.769 148.521 675.629 141.855 675.66 135.193C675.671 132.711 675.32 129.977 679.029 129.661C682.398 129.374 684.521 130.218 685.683 133.955C688.338 142.493 693.385 149.431 701.358 153.881C709.608 158.485 718.079 159.309 726.579 154.641C734.602 150.235 735.049 139.539 727.428 134.444C721.801 130.682 715.105 129.528 708.84 127.347C703.336 125.43 697.867 123.475 692.63 120.874C671.943 110.599 670.538 85.8582 682.258 71.3185Z" fill="white"/>
<path d="M913.575 102.128C913.503 99.315 913.41 96.985 913.366 94.6542C913.255 88.7337 910.931 84.2928 905.753 80.9547C900.144 77.3382 900.729 72.8669 906.989 70.4307C917.535 66.3258 928.156 62.3936 938.849 58.6854C945.469 56.3892 948.331 58.5978 948.339 65.4922C948.371 91.6586 948.472 117.826 948.294 143.991C948.251 150.28 950.018 154.751 956.511 156.385C959.422 157.118 960.624 158.919 960.28 161.891C959.918 165.016 957.887 166.166 955.108 166.172C938.942 166.204 922.776 166.192 906.61 166.126C904.076 166.116 902.035 165.155 901.711 162.201C901.394 159.316 902.467 157.621 905.373 156.598C911.942 154.285 913.581 151.675 913.603 144.109C913.644 130.276 913.591 116.443 913.575 102.128Z" fill="white"/>
<path d="M621.012 216.649C627.331 216.647 633.152 216.603 638.972 216.655C647.001 216.727 653.845 219.425 657.549 226.919C661.108 234.118 659.786 241.129 655.004 247.511C654.615 248.031 654.268 248.584 653.701 249.416C657.876 253.078 661.739 256.929 662.323 262.803C663.567 275.294 656.302 284.172 643.065 285.022C632.629 285.692 622.12 285.185 611.643 285.263C608.766 285.284 607.908 283.723 607.909 281.178C607.921 261.054 607.935 240.931 607.885 220.808C607.878 217.871 609.039 216.529 612.033 216.647C614.855 216.759 617.686 216.657 621.012 216.649ZM632.432 256.158C631.602 256.157 630.758 256.061 629.943 256.172C627.828 256.461 624.523 255.181 624.323 258.571C624.056 263.074 622.788 267.787 625.272 272.122C625.45 272.434 626.176 272.557 626.646 272.556C631.433 272.548 636.316 273.401 640.911 271.377C643.66 270.165 645.431 268.151 645.668 264.941C645.919 261.531 644.373 259.256 641.595 257.559C639.021 255.987 636.157 256.303 632.432 256.158ZM643.105 235.201C640.611 230.251 629.636 226.81 625.365 229.714C624.766 230.12 624.35 231.007 624.149 231.752C621.49 241.601 624.852 245.586 634.916 244.582C640.025 244.072 642.59 241.417 643.105 235.201Z" fill="white"/>
<path d="M697.093 223.016C710.15 213.778 723.807 212.889 737.496 219.781C750.464 226.311 756.279 237.855 756.213 252.121C756.132 269.678 742.131 284.83 725.168 286.316C703.738 288.193 687.406 277.521 684.097 258.52C681.687 244.682 685.368 232.404 697.093 223.016ZM736.665 238.94C730.471 230.634 722.1 227.817 713.022 230.982C704.467 233.964 698.879 242.286 699.442 252.047C699.92 260.349 703.332 267.246 711.31 270.798C719.38 274.391 726.971 272.903 733.574 267.2C740.559 261.169 741.885 249.627 736.665 238.94Z" fill="white"/>
<path d="M516.164 266.513C509.181 246.511 515.167 228.19 531.55 219.616C548.39 210.804 572.68 215.47 581.82 235.495C590.446 254.394 581.821 276.757 562.763 284.011C547.482 289.828 525.729 286.332 516.164 266.513ZM567.863 257.22C571.991 240.929 561.103 228.111 544.89 230.176C534.886 231.45 529.058 239.378 529.19 251.534C529.309 262.495 535.075 269.988 544.71 271.705C555.257 273.584 563.888 268.433 567.863 257.22Z" fill="white"/>
<path d="M463.748 263.496C461.084 260.615 458.008 261.938 454.318 261.638C454.318 267.829 454.088 273.761 454.393 279.664C454.622 284.102 452.932 285.418 448.619 285.37C438.624 285.256 438.631 285.445 438.635 275.287C438.642 257.811 438.782 240.333 438.543 222.86C438.479 218.181 439.68 216.326 444.636 216.556C452.608 216.926 460.61 216.627 468.599 216.657C479.622 216.698 488.039 222.402 490.881 231.702C494.208 242.585 490.884 252.256 481.584 258.779C481.058 259.149 480.575 259.58 479.772 260.221C484.601 268.163 489.381 276.025 494.614 284.632C488.492 285.686 483.412 285.374 478.362 285.003C476.504 284.866 475.873 282.956 475.005 281.569C471.299 275.647 467.622 269.707 463.748 263.496ZM454.84 230.437C453.819 233.357 454.377 236.377 454.359 239.345C454.29 250.614 454.335 250.615 465.655 249.613C466.152 249.57 466.654 249.542 467.14 249.442C472.544 248.325 475.79 244.237 475.662 238.731C475.542 233.625 472.066 229.948 466.369 229.535C462.755 229.273 459.062 228.914 454.84 230.437Z" fill="white"/>
<path d="M976.74 241.768C974.729 235.957 975.556 230.801 978.581 226.095C987.89 211.616 1015.42 212.15 1024.19 226.911C1027.17 231.927 1026.85 232.65 1021.16 234.31C1016.98 235.533 1013.36 236.639 1009.74 232.113C1006.66 228.26 1001.51 228.162 996.75 229.578C994.421 230.272 992.558 231.605 992.228 234.331C991.902 237.021 993.118 238.99 995.42 239.989C998.761 241.44 1002.23 242.616 1005.7 243.741C1010.13 245.179 1014.64 246.428 1018.64 248.904C1029.04 255.341 1031.2 268.348 1023.47 277.848C1012.12 291.81 983.195 288.441 975.234 272.286C973.653 269.078 973.409 266.95 977.849 266.558C979.647 266.399 981.448 265.853 983.162 265.241C986.51 264.046 988.906 264.38 991.171 267.72C994.813 273.09 1000.59 273.504 1006.43 272.561C1009.01 272.143 1011.02 270.541 1011.57 267.755C1012.14 264.862 1010.61 262.986 1008.25 261.658C1002.98 258.692 997.024 257.553 991.405 255.52C984.63 253.068 979.437 249.087 976.74 241.768Z" fill="white"/>
<path d="M925.624 272.625C932.115 271.564 937.006 268.769 939.876 263.091C940.876 261.113 942.167 260.526 944.316 261.403C947.83 262.837 951.429 264.062 954.896 265.34C953.323 278.267 938.693 286.912 920.021 286.331C902.625 285.79 888.743 271.143 887.834 252.368C886.98 234.718 900.442 218.149 917.548 215.799C933.861 213.557 951.557 223.003 954.524 235.737C951.293 238.11 947.314 238.821 943.575 240.077C941.73 240.697 940.362 239.805 939.308 238.311C932.634 228.849 920.569 228.747 913.376 232.705C905.917 236.81 902.181 247.761 904.722 257.903C907.091 267.36 914.289 272.538 925.624 272.625Z" fill="white"/>
<path d="M800 216.657C807.329 216.665 814.16 216.768 820.986 216.641C824.195 216.581 825.652 217.816 825.34 221.035C825.307 221.365 825.339 221.701 825.345 222.034C825.495 230.354 825.495 230.354 817 230.37C806.194 230.391 806.188 230.391 806.182 241.252C806.176 253.91 806.061 266.57 806.249 279.226C806.313 283.567 805.216 285.559 800.375 285.382C789.414 284.98 790.744 286.185 790.685 275.679C790.61 262.355 790.526 249.028 790.742 235.706C790.81 231.486 789.29 229.99 785.231 230.345C782.752 230.562 780.238 230.388 777.74 230.36C771.691 230.294 771.893 230.28 771.631 223.091C771.471 218.674 772.264 216.263 777.52 216.56C784.825 216.973 792.172 216.659 800 216.657Z" fill="white"/>
<path d="M931.033 47.083C923.658 46.1948 917.873 43.434 914.288 37.0333C908.876 27.3687 912.414 15.8659 922.427 10.6972C932.018 5.74637 944.178 9.8097 948.795 19.5081C953.468 29.3243 948.893 41.0641 938.654 45.1871C936.366 46.108 933.855 46.4725 931.033 47.083Z" fill="white"/>
<path d="M863.309 239C863.302 252.978 863.174 266.457 863.362 279.931C863.42 284.105 861.916 285.444 857.839 285.353C846.46 285.1 847.779 286.234 847.741 275.591C847.679 257.954 847.826 240.315 847.639 222.68C847.592 218.325 848.611 216.393 853.437 216.57C864.694 216.982 863.155 215.552 863.296 226.52C863.348 230.513 863.307 234.507 863.309 239Z" fill="white"/>
<path d="M153.104 187.094C175.856 186.02 193.562 177.024 204.891 157.007C207.447 152.491 207.825 147.27 209.837 142.595C212.757 135.81 219.426 131.447 225.916 132.057C234.117 132.826 240.027 137.922 241.687 145.707C242.552 149.764 241.477 153.636 240.258 157.418C229.573 190.58 206.611 210.33 173.191 217.855C134.527 226.561 94.478 208.173 75.076 173.462C70.9958 166.162 68.444 158.304 67.137 150.065C66.1367 143.759 70.7358 136.241 76.9848 133.565C83.9282 130.592 91.6388 132.415 96.395 138.178C98.5646 140.806 99.8668 143.859 100.693 147.148C105.598 166.682 125.641 184.1 145.593 186.202C147.961 186.451 150.319 186.787 153.104 187.094Z" fill="white"/>
</svg>
